<svg id="Layer_1" xmlns="http://www.w3.org/2000/svg" viewBox="0 0 346 64"><style>.st0{fill:#58C5C7;} .st1{fill:#5AB8C0;} .st2{fill:#5AADBC;} .st3{fill:#5BA4B7;} .st4{fill:#5B9BB3;} .st5{fill:#5C91AF;} .st6{fill:#5C88AA;} .st7{fill:#5C7FA5;} .st8{fill:#5C76A0;} .st9{fill:#5C6E9C;} .st10{fill:#5B6698;} .st11{fill:#5B5E93;} .st12{fill:#5A558F;} .st13{fill:#594D8B;} .st14{fill:#594487;} .st15{fill:#583A83;} .st16{fill:#FFFFFF;}</style><path class="st0" d="M18.5 64L0 32 18.5 0h37L74 32 55.5 64z"/rapid-mockups-kss-node/><path class="st1" d="M37.3 0h36.3l18.5 31.1-17.3 31.7L56.3 64h-19l-14-23.4-4.5-8.4 5.7-11z"/rapid-mockups-kss-node/><path class="st2" d="M56.1 0h35.6l18.5 30.2-16 31.3L75.7 64H56.1L41.7 41l-4.1-8.5L42.9 21z"/rapid-mockups-kss-node/><path class="st3" d="M74.9 0h34.9l18.6 29.3-14.8 31L95 64H74.9L60.2 41.3l-3.8-8.6 4.9-11.9z"/rapid-mockups-kss-node/><path class="st4" d="M93.7 0h34.2l18.6 28.5L132.9 59l-18.5 5H93.7l-15-22.4-3.5-8.7 4.5-12.3z"/rapid-mockups-kss-node/><path class="st5" d="M112.6 0h33.5l18.5 27.6-12.3 30.2-18.6 6.2h-21.1L97.2 41.9 94 33.2l4.1-12.7z"/rapid-mockups-kss-node/><path class="st6" d="M131.4 0h32.8l18.6 26.7-11.1 29.8-18.6 7.5h-21.7l-15.7-21.7-2.9-8.9 3.7-13.1z"/rapid-mockups-kss-node/><path class="st7" d="M150.2 0h32.1l18.6 25.8-9.8 29.5-18.7 8.7h-22.2l-16.1-21.4-2.5-9 3.3-13.5z"/rapid-mockups-kss-node/><path class="st8" d="M169 0h31.4L219 24.9 210.4 54l-18.6 10H169l-16.4-21.1-2.2-9 2.8-13.9z"/rapid-mockups-kss-node/><path class="st9" d="M187.8 0h30.7l18.7 24-7.4 28.8L211.1 64h-23.3l-16.7-20.7-1.9-9.2 2.4-14.3z"/rapid-mockups-kss-node/><path class="st10" d="M206.6 0h30l18.7 23.2-6.1 28.3L230.5 64h-23.9l-17-20.4-1.6-9.3 2-14.7z"/rapid-mockups-kss-node/><path class="st11" d="M225.5 0h29.3l18.7 22.3-5 28L249.8 64h-24.3L208 43.9l-1.2-9.4 1.6-15.1z"/rapid-mockups-kss-node/><path class="st12" d="M244.3 0h28.6l18.7 21.4-3.7 27.6-18.7 15h-24.9l-17.8-19.7-.9-9.5 1.2-15.5z"/rapid-mockups-kss-node/><path class="st13" d="M263.1 0H291l18.7 20.5-2.4 27.3L288.5 64h-25.4L245 44.6l-.6-9.6.8-15.9z"/rapid-mockups-kss-node/><path class="st14" d="M281.9 0h27.2l18.8 19.6-1.3 26.9L307.9 64h-26l-18.4-19.1-.3-9.7.4-16.3z"/rapid-mockups-kss-node/><path class="st15" d="M300.7 64l-18.8-18.7V18.7L300.7 0h26.5L346 18.7v26.6L327.2 64z"/rapid-mockups-kss-node/><g><path class="st16" d="M38.7 45V32.5h-14V45h-6.3V15.3h6.3V27h14V15.3H45V45h-6.3zM50.9 45V15.3h21v5.6H57.2v6.3h14.4v5.6H57.2v6.7h14.7V45h-21zM96.2 45l-7.4-10.8L81.2 45h-7.5l10.8-15.2-10.1-14.5h7.5l6.8 10.1 6.7-10.1h7.6L93 29.7 103.7 45h-7.5zM103.8 30.2c0-8.9 6.5-15.3 15.5-15.3s15.5 6.4 15.5 15.3-6.5 15.3-15.5 15.3-15.5-6.4-15.5-15.3zm24.5 0c0-5.6-3.6-9.7-9-9.7-5.5 0-9 4.2-9 9.7 0 5.5 3.5 9.7 9 9.7 5.4 0 9-4.2 9-9.7zM137.8 30.2c0-9.1 6.9-15.3 15.8-15.3 6.5 0 10.3 3.6 12.4 7.2l-5.4 2.7c-1.2-2.4-3.9-4.3-7-4.3-5.4 0-9.3 4.1-9.3 9.7s3.9 9.7 9.3 9.7c3.1 0 5.7-1.9 7-4.3l5.4 2.6c-2.1 3.7-5.9 7.3-12.4 7.3-8.9 0-15.8-6.2-15.8-15.3zM176.6 45V20.9H168v-5.6h23.7v5.6H183V45h-6.4zM193.2 30.2c0-8.9 6.5-15.3 15.5-15.3s15.5 6.4 15.5 15.3-6.5 15.3-15.5 15.3-15.5-6.4-15.5-15.3zm24.5 0c0-5.6-3.6-9.7-9-9.7s-9 4.2-9 9.7c0 5.5 3.5 9.7 9 9.7s9-4.2 9-9.7zM227.2 30.2c0-9.4 7.1-15.3 15.8-15.3 6.2 0 10.1 3.1 12.3 6.6l-5.2 2.8c-1.3-2.1-3.9-3.9-7-3.9-5.4 0-9.3 4.1-9.3 9.7s3.9 9.7 9.3 9.7c2.6 0 5.1-1.2 6.3-2.3v-3.6h-7.8v-5.5h14.1V40c-3 3.4-7.3 5.6-12.6 5.6-8.8 0-15.9-6.1-15.9-15.4zM259.2 30.2c0-8.9 6.5-15.3 15.5-15.3s15.5 6.4 15.5 15.3-6.5 15.3-15.5 15.3c-8.9 0-15.5-6.4-15.5-15.3zm24.6 0c0-5.6-3.6-9.7-9-9.7s-9 4.2-9 9.7c0 5.5 3.5 9.7 9 9.7s9-4.2 9-9.7zM315.2 45L301 25.6V45h-6.3V15.3h6.5L314.9 34V15.3h6.3V45h-6z"/rapid-mockups-kss-node/></g></svg>