<?xml version="1.0" encoding="utf-8"?>
<!-- Generator: Adobe Illustrator 19.1.0, SVG Export Plug-In . SVG Version: 6.00 Build 0)  -->
<svg version="1.1" id="Layer_1" xmlns="http://www.w3.org/2000/svg" xmlns:xlink="http://www.w3.org/1999/xlink" x="0px" y="0px"
	 viewBox="0 0 346 64" style="enable-background:new 0 0 346 64;" xml:space="preserve">
<style type="text/css">
	.st0{fill:#58C5C7;}
	.st1{fill:#5AB8C0;}
	.st2{fill:#5AADBC;}
	.st3{fill:#5BA4B7;}
	.st4{fill:#5B9BB3;}
	.st5{fill:#5C91AF;}
	.st6{fill:#5C88AA;}
	.st7{fill:#5C7FA5;}
	.st8{fill:#5C76A0;}
	.st9{fill:#5C6E9C;}
	.st10{fill:#5B6698;}
	.st11{fill:#5B5E93;}
	.st12{fill:#5A558F;}
	.st13{fill:#594D8B;}
	.st14{fill:#594487;}
	.st15{fill:#583A83;}
	.st16{fill:#FFFFFF;}
</style>
<g>
	<g>
		<polygon class="st0" points="18.5,64 0,32 18.5,0 55.5,0 74,32 55.5,64 		"/>
		<polygon class="st1" points="37.3,0 73.6,0 92.1,31.1 74.8,62.8 56.3,64 37.3,64 23.3,40.6 18.8,32.2 24.5,21.2 		"/>
		<polygon class="st2" points="56.1,0 91.7,0 110.2,30.2 94.2,61.5 75.7,64 56.1,64 41.7,41 37.6,32.5 42.9,21 		"/>
		<polygon class="st3" points="74.9,0 109.8,0 128.4,29.3 113.6,60.3 95,64 74.9,64 60.2,41.3 56.4,32.7 61.3,20.8 		"/>
		<polygon class="st4" points="93.7,0 127.9,0 146.5,28.5 132.9,59 114.4,64 93.7,64 78.7,41.6 75.2,32.9 79.7,20.6 		"/>
		<polygon class="st5" points="112.6,0 146.1,0 164.6,27.6 152.3,57.8 133.7,64 112.6,64 97.2,41.9 94,33.2 98.1,20.5 		"/>
		<polygon class="st6" points="131.4,0 164.2,0 182.8,26.7 171.7,56.5 153.1,64 131.4,64 115.7,42.3 112.8,33.4 116.5,20.3 		"/>
		<polygon class="st7" points="150.2,0 182.3,0 200.9,25.8 191.1,55.3 172.4,64 150.2,64 134.1,42.6 131.6,33.6 134.9,20.1 		"/>
		<polygon class="st8" points="169,0 200.4,0 219,24.9 210.4,54 191.8,64 169,64 152.6,42.9 150.4,33.9 153.2,20 		"/>
		<polygon class="st9" points="187.8,0 218.5,0 237.2,24 229.8,52.8 211.1,64 187.8,64 171.1,43.3 169.2,34.1 171.6,19.8 		"/>
		<polygon class="st10" points="206.6,0 236.6,0 255.3,23.2 249.2,51.5 230.5,64 206.6,64 189.6,43.6 188,34.3 190,19.6 		"/>
		<polygon class="st11" points="225.5,0 254.8,0 273.5,22.3 268.5,50.3 249.8,64 225.5,64 208,43.9 206.8,34.5 208.4,19.4 		"/>
		<polygon class="st12" points="244.3,0 272.9,0 291.6,21.4 287.9,49 269.2,64 244.3,64 226.5,44.3 225.6,34.8 226.8,19.3 		"/>
		<polygon class="st13" points="263.1,0 291,0 309.7,20.5 307.3,47.8 288.5,64 263.1,64 245,44.6 244.4,35 245.2,19.1 		"/>
		<polygon class="st14" points="281.9,0 309.1,0 327.9,19.6 326.6,46.5 307.9,64 281.9,64 263.5,44.9 263.2,35.2 263.6,18.9 		"/>
		<polygon class="st15" points="300.7,64 281.9,45.3 281.9,18.7 300.7,0 327.2,0 346,18.7 346,45.3 327.2,64 		"/>
	</g>
	<g>
		<path class="st16" d="M38.7,45V32.5h-14V45h-6.3V15.3h6.3V27h14V15.3H45V45H38.7z"/>
		<path class="st16" d="M50.9,45V15.3h21v5.6H57.2v6.3h14.4v5.6H57.2v6.7h14.7V45H50.9z"/>
		<path class="st16" d="M96.2,45l-7.4-10.8L81.2,45h-7.5l10.8-15.2L74.4,15.3h7.5l6.8,10.1l6.7-10.1h7.6L93,29.7L103.7,45H96.2z"/>
		<path class="st16" d="M103.8,30.2c0-8.9,6.5-15.3,15.5-15.3c9,0,15.5,6.4,15.5,15.3c0,8.9-6.5,15.3-15.5,15.3
			C110.3,45.5,103.8,39.1,103.8,30.2z M128.3,30.2c0-5.6-3.6-9.7-9-9.7c-5.5,0-9,4.2-9,9.7c0,5.5,3.5,9.7,9,9.7
			C124.7,39.9,128.3,35.7,128.3,30.2z"/>
		<path class="st16" d="M137.8,30.2c0-9.1,6.9-15.3,15.8-15.3c6.5,0,10.3,3.6,12.4,7.2l-5.4,2.7c-1.2-2.4-3.9-4.3-7-4.3
			c-5.4,0-9.3,4.1-9.3,9.7c0,5.6,3.9,9.7,9.3,9.7c3.1,0,5.7-1.9,7-4.3l5.4,2.6c-2.1,3.7-5.9,7.3-12.4,7.3
			C144.7,45.5,137.8,39.3,137.8,30.2z"/>
		<path class="st16" d="M176.6,45V20.9H168v-5.6h23.7v5.6H183V45H176.6z"/>
		<path class="st16" d="M193.2,30.2c0-8.9,6.5-15.3,15.5-15.3c9,0,15.5,6.4,15.5,15.3c0,8.9-6.5,15.3-15.5,15.3
			C199.7,45.5,193.2,39.1,193.2,30.2z M217.7,30.2c0-5.6-3.6-9.7-9-9.7s-9,4.2-9,9.7c0,5.5,3.5,9.7,9,9.7S217.7,35.7,217.7,30.2z"/>
		<path class="st16" d="M227.2,30.2c0-9.4,7.1-15.3,15.8-15.3c6.2,0,10.1,3.1,12.3,6.6l-5.2,2.8c-1.3-2.1-3.9-3.9-7-3.9
			c-5.4,0-9.3,4.1-9.3,9.7c0,5.6,3.9,9.7,9.3,9.7c2.6,0,5.1-1.2,6.3-2.3v-3.6h-7.8v-5.5h14.1V40c-3,3.4-7.3,5.6-12.6,5.6
			C234.3,45.6,227.2,39.5,227.2,30.2z"/>
		<path class="st16" d="M259.2,30.2c0-8.9,6.5-15.3,15.5-15.3c9,0,15.5,6.4,15.5,15.3c0,8.9-6.5,15.3-15.5,15.3
			C265.8,45.5,259.2,39.1,259.2,30.2z M283.8,30.2c0-5.6-3.6-9.7-9-9.7s-9,4.2-9,9.7c0,5.5,3.5,9.7,9,9.7S283.8,35.7,283.8,30.2z"/>
		<path class="st16" d="M315.2,45L301,25.6V45h-6.3V15.3h6.5L314.9,34V15.3h6.3V45H315.2z"/>
	</g>
</g>
</svg>
